<svg xmlns="http://www.w3.org/2000/svg" viewBox="0 0 1134 976">
  <g id="地区">
    <path name="黑龙江" d="M1100,33v158H894V33H1100z" />
    <path name="甘肃" d="M585,191v371H351V191H585z" />
    <path name="吉林" d="M894,191v85h206v-85H894z" />
    <path name="内蒙古" d="M894,33H738v158H499v227h227l168-108V33z" />
    <path name="山东" d="M779,446v92h139v-92H779z" />
    <path name="河北" d="M861,310H726v180h117v-95h18V310z" />
    <path name="北京" d="M763 336h80v52H763Z" />
    <path name="天津" d="M763,388h80v43h-80V388z" />
    <path name="西藏" d="M389,770H35V466h354V770z" />
    <path name="新疆" d="M35,466V87h316v379H35z" />
    <path name="河南" d="M779,490H654v117h125V490z" />
    <path name="安徽" d="M852,538h-73v138h73V538z" />
    <path name="山西" d="M654,418v108h72V418H654z" />
    <path name="湖北" d="M779,688v-81H654v81H779z" />
    <path name="青海" d="M442,626V395H228v231H442z" />
    <path name="辽宁" d="M861,276v119h154V276H861z" />
    <path name="广东" d="M823,788H679v81h144V788z" />
    <path name="江苏" d="M899,538v87h-62v-87H899z" />
    <path name="江西" d="M852,806V676H749v130H852z" />
    <path name="浙江" d="M852,625l74,1v107h-74V625z" />
    <path name="福建" d="M823,733v107h73V733H823z" />
    <path name="上海" d="M882 602h72v47H882Z" />
    <path name="陕西" d="M585,653h69V418h-69V653z" />
    <path name="湖南" d="M654,688h95v100h-95V688z" />
    <path name="广西" d="M679,788H537v81h142V788z" />
    <path name="香港" d="M758 856h42v33H758Z" />
    <path name="澳门" d="M701 856h45v33H701Z" />
    <path name="贵州" d="M654,709H537v79h117V709z" />
    <path name="重庆" d="M565 653h89v56H565Z" />
    <path name="四川" d="M565,737v-84h20v-91H389v175H565z" />
    <path name="云南" d="M537,737H389v115h148V737z" />
    <path name="宁夏" d="M585,418h-86v96h86V418z" />
    <path name="台湾" d="M918 788h45v87H918Z" />
    <path name="海南" d="M615 897h78v46H615Z" />
  </g>
  <path name="南海诸岛" d="M827 941L827 897L908 897L908 941" />
  <g id="地名" font-size="30" font-family="ZCOOL KuaiLe">
    <text x="659" y="266">内蒙古</text>
    <text x="951" y="123">黑龙江</text>
    <text x="966" y="242">吉林</text>
    <text x="906" y="347">辽宁</text>
    <text x="773" y="371">北京</text>
    <text x="773" y="419">天津</text>
    <text x="751" y="469">河北</text>
    <text x="861" y="488">山</text>
    <text x="861" y="518">东</text>
    <text x="685" y="579">河南</text>
    <text x="684" y="658">湖北</text>
    <text x="684" y="733">湖</text>
    <text x="684" y="763">南</text>
    <text x="846" y="575">江</text>
    <text x="846" y="605">苏</text>
    <text x="888" y="635">上海</text>
    <text x="872" y="685">浙</text>
    <text x="872" y="715">江</text>
    <text x="844" y="783">福</text>
    <text x="844" y="813">建</text>
    <text x="925" y="826">台</text>
    <text x="925" y="856">湾</text>
    <text x="625" y="930">海南</text>
    <text x="721" y="842">广东</text>
    <text x="772" y="736">江</text>
    <text x="772" y="766">西</text>
    <text x="793" y="603">安</text>
    <text x="793" y="633">徽</text>
    <text x="674" y="466">山</text>
    <text x="674" y="496">西</text>
    <text x="604" y="536">陕</text>
    <text x="604" y="566">西</text>
    <text x="527" y="460">宁</text>
    <text x="527" y="490">夏</text>
    <text x="411" y="304">甘</text>
    <text x="411" y="334">肃</text>
    <text x="301" y="520">青海</text>
    <text x="453" y="660">四川</text>
    <text x="432" y="805">云南</text>
    <text x="579" y="839">广西</text>
    <text x="566" y="759">贵州</text>
    <text x="579" y="691">重庆</text>
    <text x="104" y="639">西藏</text>
    <text x="163" y="288">新疆</text>
    <text x="767" y="880" font-size="24">港</text>
    <text x="711" y="880" font-size="24">澳</text>
  </g>
</svg>